<?xml version="1.0" standalone="no"?>
<!DOCTYPE svg PUBLIC "-//W3C//DTD SVG 20010904//EN"
 "http://www.w3.org/TR/2001/REC-SVG-20010904/DTD/svg10.dtd">
<svg version="1.0" xmlns="http://www.w3.org/2000/svg"
 width="582.000000pt" height="230.000000pt" viewBox="0 0 582.000000 230.000000"
 preserveAspectRatio="xMidYMid meet">

<g transform="translate(0.000000,230.000000) scale(0.100000,-0.100000)"
fill="#000000" stroke="none">
<path d="M0 1150 l0 -1150 2910 0 2910 0 0 1150 0 1150 -2910 0 -2910 0 0
-1150z m3057 390 c87 -53 82 -184 -9 -240 -88 -54 -208 17 -208 123 0 45 14
48 29 7 8 -26 15 -30 45 -30 25 0 39 6 50 22 l16 22 16 -22 c11 -15 25 -22 50
-22 29 0 36 5 48 33 7 17 11 36 8 41 -2 5 -28 5 -56 2 -88 -12 -164 -15 -136
-5 20 7 17 8 -17 6 -48 -3 -47 -3 -32 24 29 56 135 77 196 39z m-374 -542 c15
-40 27 -76 27 -80 0 -16 -30 -7 -40 12 -6 12 -21 20 -35 20 -14 0 -29 -8 -35
-20 -11 -20 -40 -28 -40 -11 0 5 7 25 15 45 8 20 22 52 29 71 24 57 47 47 79
-37z m77 -8 c0 -73 -2 -80 -20 -80 -18 0 -20 7 -20 80 0 73 2 80 20 80 18 0
20 -7 20 -80z m60 0 c0 -73 -2 -80 -20 -80 -18 0 -20 7 -20 80 0 73 2 80 20
80 18 0 20 -7 20 -80z m210 0 c0 -64 -3 -80 -15 -80 -12 0 -15 16 -15 80 0 64
3 80 15 80 12 0 15 -16 15 -80z m230 9 c6 -10 10 -33 10 -52 l0 -35 -47 2
c-44 1 -48 3 -48 26 0 17 7 26 24 30 33 8 41 32 10 28 -31 -4 -37 15 -7 23 30
7 46 1 58 -22z m-288 6 c-1 -5 -12 -10 -25 -10 -18 0 -22 -6 -22 -30 0 -27 3
-30 28 -27 34 3 36 -15 2 -24 -34 -9 -54 1 -65 32 -16 40 11 76 53 72 18 -2
31 -7 29 -13z m176 -17 c3 -26 1 -28 -34 -28 -31 0 -35 -2 -24 -15 8 -10 21
-13 37 -8 19 4 24 2 21 -8 -7 -21 -57 -23 -79 -3 -22 19 -25 64 -7 82 7 7 29
12 48 10 30 -3 35 -7 38 -30z m212 20 c0 -5 -9 -12 -20 -15 -16 -4 -20 -14
-20 -44 0 -28 -4 -39 -15 -39 -11 0 -15 13 -15 54 l0 54 35 0 c19 0 35 -4 35
-10z m30 -84 c0 -8 -7 -14 -15 -14 -15 0 -21 21 -9 33 10 9 24 -2 24 -19z"/>
<path d="M2929 1361 c13 -12 36 -21 51 -21 15 0 38 9 51 21 23 19 23 20 2 10
-12 -6 -36 -11 -53 -11 -17 0 -41 5 -53 11 -21 10 -21 9 2 -10z"/>
<path d="M2625 1007 c-8 -31 -4 -40 18 -35 13 3 13 7 2 33 l-12 30 -8 -28z"/>
<path d="M3213 953 c-18 -7 -16 -23 2 -23 8 0 15 7 15 15 0 8 -1 15 -2 14 -2
0 -9 -3 -15 -6z"/>
<path d="M3085 990 c-3 -5 3 -10 14 -10 12 0 21 5 21 10 0 6 -6 10 -14 10 -8
0 -18 -4 -21 -10z"/>
</g>
</svg>
